# xmcd CD database file
#
# Track frame offsets:
#	182
#	12980
#	26715
#	43020
#	58107
#	64945
#	72767
#	83832
#	97382
#	110190
#	121650
#	139145
#	152752
#	161552
#	175227
#	186997
#	196602
#	217847
#	225982
#
# Disc length: 3210 seconds
#
# Revision: 16
# Processed by: cddbd v1.5.2PL0 Copyright (c) Steve Scherf et al.
# Submitted via: CDex 1.51
#
DISCID=080c8813
DTITLE=Barbara - Vol 01 - La Chanteuse de Minuit - 1957-58-59
DYEAR=1900
DGENRE=Country
TTITLE0=Mon Pote le gitan
TTITLE1=L'Oeillet blanc
TTITLE2=L'Homme en habit
TTITLE3=J'ai tué l'amour
TTITLE4=Maitresse d'acteur
TTITLE5=Veuve de guerre
TTITLE6=D'Elle à lui
TTITLE7=Les Boutons dorés
TTITLE8=Les Voyages
TTITLE9=La Belle d'amour
TTITLE10=Souris pas Tony
TTITLE11=La Femme d'Hector
TTITLE12=Les Amis de Monsieur
TTITLE13=Tais-toi Marseille
TTITLE14=Souvenance
TTITLE15=Il nous faut regarder
TTITLE16=Un Monsieur me suit dans la rue
TTITLE17=La Joconde
TTITLE18=Les Sirènes
EXTD=
EXTT0=
EXTT1=
EXTT2=
EXTT3=
EXTT4=
EXTT5=
EXTT6=
EXTT7=
EXTT8=
EXTT9=
EXTT10=
EXTT11=
EXTT12=
EXTT13=
EXTT14=
EXTT15=
EXTT16=
EXTT17=
EXTT18=
PLAYORDER=
